<svg width="40" height="40" viewBox="0 0 40 40" fill="none" xmlns="http://www.w3.org/2000/svg">
<g clip-path="url(#clip0_6_689)">
<path d="M31.6667 9.99998H21.6667C20.1447 10.0056 18.6535 10.4289 17.3556 11.2239C16.0578 12.0189 15.0031 13.155 14.3067 14.5083C13.3073 13.7496 12.088 13.3372 10.8333 13.3333C9.28624 13.3333 7.8025 13.9479 6.70854 15.0419C5.61458 16.1358 5 17.6196 5 19.1666C5.00488 20.0333 5.20482 20.8878 5.585 21.6666H3.33333V4.99998C3.33333 4.55795 3.15774 4.13403 2.84518 3.82147C2.53262 3.50891 2.10869 3.33331 1.66667 3.33331C1.22464 3.33331 0.800716 3.50891 0.488155 3.82147C0.175595 4.13403 0 4.55795 0 4.99998L0 35C0 35.442 0.175595 35.8659 0.488155 36.1785C0.800716 36.4911 1.22464 36.6667 1.66667 36.6667C2.10869 36.6667 2.53262 36.4911 2.84518 36.1785C3.15774 35.8659 3.33333 35.442 3.33333 35V31.6667H36.6667V35C36.6667 35.442 36.8423 35.8659 37.1548 36.1785C37.4674 36.4911 37.8913 36.6667 38.3333 36.6667C38.7754 36.6667 39.1993 36.4911 39.5118 36.1785C39.8244 35.8659 40 35.442 40 35V18.3333C39.9973 16.124 39.1185 14.0059 37.5563 12.4437C35.9941 10.8815 33.876 10.0026 31.6667 9.99998V9.99998ZM16.6667 18.3333C16.6667 17.0072 17.1934 15.7355 18.1311 14.7978C19.0688 13.8601 20.3406 13.3333 21.6667 13.3333H31.6667C32.9927 13.3333 34.2645 13.8601 35.2022 14.7978C36.1399 15.7355 36.6667 17.0072 36.6667 18.3333V21.6666H16.6667V18.3333ZM8.33333 19.1666C8.33333 18.6722 8.47995 18.1888 8.75466 17.7777C9.02936 17.3666 9.41981 17.0462 9.87662 16.8569C10.3334 16.6677 10.8361 16.6182 11.3211 16.7147C11.806 16.8111 12.2515 17.0493 12.6011 17.3989C12.9507 17.7485 13.1888 18.194 13.2853 18.6789C13.3818 19.1639 13.3322 19.6665 13.143 20.1234C12.9538 20.5802 12.6334 20.9706 12.2223 21.2453C11.8111 21.52 11.3278 21.6666 10.8333 21.6666C10.1703 21.6666 9.53441 21.4033 9.06556 20.9344C8.59672 20.4656 8.33333 19.8297 8.33333 19.1666ZM3.33333 28.3333V25H36.6667V28.3333H3.33333Z" fill="#5A6074"/>
</g>
<defs>
<clipPath id="clip0_6_689">
<rect width="40" height="40" fill="white"/>
</clipPath>
</defs>
</svg>
