<svg width="20" height="20" viewBox="0 0 20 20" fill="none" xmlns="http://www.w3.org/2000/svg">
<path d="M2.63813 10.8333H2.64012L1.40419 9.9297C1.03166 9.65733 0.754725 9.27421 0.61295 8.83504C0.471175 8.39588 0.471808 7.92315 0.614758 7.48437C0.757708 7.04559 1.03566 6.6632 1.40892 6.39183C1.78209 6.12053 2.23144 5.97406 2.69281 5.97333C2.69292 5.97333 2.69302 5.97333 2.69313 5.97333L6.33325 5.97333H6.69793L6.80935 5.62608L7.91518 2.17942L7.91522 2.17928C8.05679 1.73762 8.33496 1.35234 8.70964 1.07898C9.08431 0.805624 9.53612 0.658325 9.99992 0.658325C10.4637 0.658325 10.9155 0.805624 11.2902 1.07898C11.6649 1.35234 11.943 1.73762 12.0846 2.17928L12.0847 2.17942L13.1905 5.62608L13.3019 5.97333H13.6666L17.31 5.97333C17.3101 5.97333 17.3103 5.97333 17.3104 5.97333C17.7717 5.97406 18.2211 6.12053 18.5942 6.39183C18.9675 6.6632 19.2455 7.04559 19.3884 7.48437C19.5314 7.92315 19.532 8.39588 19.3902 8.83504C19.2485 9.27413 18.9716 9.65719 18.5992 9.92955C18.5991 9.9296 18.5991 9.92965 18.599 9.9297L15.6325 12.0962L15.3405 12.3095L15.4516 12.6536L16.5783 16.1428C16.7205 16.5834 16.7194 17.0579 16.5751 17.4978C16.4307 17.9378 16.1506 18.3207 15.7749 18.5914C15.3992 18.8622 14.9474 19.0068 14.4843 19.0045C14.0213 19.0023 13.5709 18.8533 13.1978 18.5789L13.1977 18.5788L10.296 16.4463L9.9997 16.2285L9.70354 16.4465L6.80271 18.5815L6.80269 18.5814L6.79806 18.5849C6.42847 18.8636 5.97874 19.0154 5.51588 19.0177C5.05301 19.02 4.60179 18.8727 4.22944 18.5978L4.22952 18.5977L4.22003 18.591C3.84116 18.3246 3.55855 17.9428 3.41431 17.5027C3.27008 17.0626 3.27195 16.5876 3.41965 16.1486L3.41968 16.1486L3.42156 16.1428L4.54823 12.6536L4.65935 12.3095L4.36731 12.0962L2.63813 10.8333Z" fill="#E4EBF5" stroke="#58CBE0"/>
</svg>
