<svg width="20" height="20" viewBox="0 0 20 20" fill="none" xmlns="http://www.w3.org/2000/svg">
<g clip-path="url(#clip0_6_267)">
<path d="M10.0001 5C9.34082 5 8.69635 5.1955 8.14819 5.56177C7.60002 5.92804 7.17278 6.44863 6.92048 7.05772C6.66819 7.66681 6.60218 8.33703 6.7308 8.98363C6.85942 9.63024 7.17689 10.2242 7.64306 10.6904C8.10924 11.1565 8.70318 11.474 9.34979 11.6026C9.99639 11.7312 10.6666 11.6652 11.2757 11.4129C11.8848 11.1606 12.4054 10.7334 12.7717 10.1852C13.1379 9.63707 13.3334 8.9926 13.3334 8.33333C13.3334 7.44928 12.9822 6.60143 12.3571 5.97631C11.732 5.35119 10.8841 5 10.0001 5ZM10.0001 10C9.67045 10 9.34822 9.90225 9.07414 9.71912C8.80006 9.53598 8.58643 9.27568 8.46029 8.97114C8.33414 8.6666 8.30114 8.33148 8.36544 8.00818C8.42975 7.68488 8.58849 7.38791 8.82158 7.15482C9.05466 6.92174 9.35164 6.763 9.67494 6.69869C9.99824 6.63438 10.3334 6.66739 10.6379 6.79353C10.9424 6.91968 11.2027 7.1333 11.3859 7.40738C11.569 7.68147 11.6668 8.0037 11.6668 8.33333C11.6668 8.77536 11.4912 9.19928 11.1786 9.51184C10.866 9.82441 10.4421 10 10.0001 10Z" fill="#5B6277"/>
<path d="M10 20C9.29831 20.0036 8.60595 19.839 7.98091 19.5201C7.35587 19.2011 6.81635 18.737 6.40752 18.1667C3.23168 13.7858 1.62085 10.4925 1.62085 8.37751C1.62085 6.15522 2.50365 4.02395 4.07505 2.45255C5.64645 0.881154 7.77773 -0.00164795 10 -0.00164795C12.2223 -0.00164795 14.3536 0.881154 15.925 2.45255C17.4964 4.02395 18.3792 6.15522 18.3792 8.37751C18.3792 10.4925 16.7684 13.7858 13.5925 18.1667C13.1837 18.737 12.6442 19.2011 12.0191 19.5201C11.3941 19.839 10.7017 20.0036 10 20V20ZM10 1.81752C8.26037 1.8195 6.59253 2.51146 5.36241 3.74158C4.13229 4.9717 3.44034 6.63953 3.43835 8.37918C3.43835 10.0542 5.01585 13.1517 7.87919 17.1008C8.12227 17.4357 8.44116 17.7082 8.80978 17.8961C9.1784 18.084 9.58627 18.1819 10 18.1819C10.4138 18.1819 10.8216 18.084 11.1903 17.8961C11.5589 17.7082 11.8778 17.4357 12.1209 17.1008C14.9842 13.1517 16.5617 10.0542 16.5617 8.37918C16.5597 6.63953 15.8678 4.9717 14.6376 3.74158C13.4075 2.51146 11.7397 1.8195 10 1.81752V1.81752Z" fill="#5B6277"/>
</g>
<defs>
<clipPath id="clip0_6_267">
<rect width="20" height="20" fill="white"/>
</clipPath>
</defs>
</svg>
