<svg width="20" height="20" viewBox="0 0 20 20" fill="none" xmlns="http://www.w3.org/2000/svg">
<path d="M1.10575 10.3333L4.07242 12.5L2.94575 15.9892C2.76368 16.5303 2.76137 17.1158 2.93917 17.6584C3.11698 18.201 3.46537 18.6716 3.93242 19C4.39146 19.339 4.94774 19.5206 5.51838 19.5177C6.08901 19.5149 6.64345 19.3277 7.09908 18.9842L9.99992 16.8492L12.9016 18.9817C13.3598 19.3187 13.9131 19.5018 14.4819 19.5045C15.0507 19.5073 15.6057 19.3296 16.0672 18.9971C16.5287 18.6645 16.8728 18.1942 17.0502 17.6537C17.2275 17.1132 17.2289 16.5305 17.0541 15.9892L15.9274 12.5L18.8941 10.3333C19.3517 9.99875 19.6919 9.52812 19.866 8.98865C20.0402 8.44919 20.0394 7.86848 19.8638 7.32949C19.6882 6.79049 19.3468 6.32077 18.8883 5.98742C18.4298 5.65407 17.8776 5.47414 17.3108 5.47333H13.6666L12.5608 2.02667C12.3869 1.48413 12.0451 1.01085 11.5849 0.675057C11.1246 0.339266 10.5696 0.158325 9.99992 0.158325C9.43019 0.158325 8.87519 0.339266 8.41494 0.675057C7.95469 1.01085 7.61298 1.48413 7.43908 2.02667L6.33325 5.47333H2.69242C2.12554 5.47414 1.57341 5.65407 1.1149 5.98742C0.65639 6.32077 0.314951 6.79049 0.139351 7.32949C-0.0362483 7.86848 -0.0370256 8.44919 0.13713 8.98865C0.311286 9.52812 0.651467 9.99875 1.10908 10.3333H1.10575Z" fill="#58CBE0"/>
</svg>
